<svg xmlns="http://www.w3.org/2000/svg" viewBox="0 0 484.83 476.17"><defs><style>.cls-1{fill:#09357b;}.cls-2{fill:#fafbfa;}</style></defs><title>placeholder</title><g id="Layer_2" data-name="Layer 2"><g id="Layer_1-2" data-name="Layer 1"><g id="Layer_2-2" data-name="Layer 2"><g id="Layer_1-2-2" data-name="Layer 1-2"><path class="cls-1" d="M484.83.33V91.49a10.8,10.8,0,0,0-.22,1.6v382.8H1.94c-.65,0-1.29,0-1.94-.06V226.94a7.09,7.09,0,0,0,.3-1.44V150.92c0-24.86-.11-49.7.16-74.55S.54,26.82.54,2.05V.2H482.77C483.46.21,484.15.28,484.83.33ZM104.74,126.77v-.09H79.59c-1.38,0-1.87.77-1.51,2.16a1.62,1.62,0,0,0,1.33,1.24c1.54.4,3.08.82,4.61,1.26a5.5,5.5,0,0,1,4.2,4.74A56,56,0,0,1,88.8,142c.1,2.41,0,4.83,0,7.25v48.28a37.8,37.8,0,0,1-.79,7.58,5.37,5.37,0,0,1-4.3,4.47c-1.42.34-2.84.71-4.26,1-1.21.28-1.66.84-1.55,2s.59,1.51,1.83,1.55h39.81c1.1,0,1.6-.54,1.69-1.69a1.52,1.52,0,0,0-1.11-1.84l-.22,0a6.48,6.48,0,0,0-.77-.08,13.34,13.34,0,0,1-5.2-1.44,5.61,5.61,0,0,1-3.34-4.33,34.8,34.8,0,0,1-.45-5c-.07-7.34-.08-14.67-.11-22a7.49,7.49,0,0,1,0-1.16,1.65,1.65,0,0,1,1.49-1.54,6.4,6.4,0,0,1,1.16-.07,144.78,144.78,0,0,0,16.91-1A31.57,31.57,0,0,0,145,168a20.55,20.55,0,0,0,8-11,28.07,28.07,0,0,0,.26-13.45,16.9,16.9,0,0,0-7.79-11.44,34.38,34.38,0,0,0-16.11-5.1c-3.7-.22-7.41-.2-11.12-.23C113.71,126.74,109.22,126.77,104.74,126.77ZM314.24,154V133.29c0-1.34.07-2.67.07-4,0-2-.58-2.67-2.44-2.67H291.94a2.41,2.41,0,0,0-1,.09,1.6,1.6,0,0,0-.8.74,2,2,0,0,0,1,2.66,2.15,2.15,0,0,0,.45.14c.29.09.58.16.87.26a4.65,4.65,0,0,1,3.35,3.76,22.61,22.61,0,0,1,.29,3.85v62c0,1.43,0,2.85-.07,4.28-.13,2.84-1.33,4.95-4.17,5.9a4.49,4.49,0,0,0-1.23.68,1.9,1.9,0,0,0-.48,2.14c.17.7.71,1,1.59,1.06.56,0,1.12-.05,1.68,0H315c1.38,0,2.76,0,4.14-.07a1.49,1.49,0,0,0,1.66-1.32.53.53,0,0,0,0-.13,1.7,1.7,0,0,0-1.24-1.88c-.52-.19-1.07-.31-1.6-.48a4.88,4.88,0,0,1-3.56-4.33,13.25,13.25,0,0,1-.1-1.67q0-6.48-.08-13a15.09,15.09,0,0,1,.17-2.32,3.14,3.14,0,0,1,1.86-2.47,1.62,1.62,0,0,1,2.23.48l.1.19c.45.68.87,1.39,1.34,2.06,3.39,4.84,6.8,9.67,10.17,14.52.66,1,1.2,2,1.77,3,1.06,1.9,0,3.12-1.66,3.65-.53.17-1.1.21-1.65.34a1.28,1.28,0,0,0-1.17,1.38s0,.06,0,.08c-.05,1.22.4,1.74,1.62,1.86H354.8a8,8,0,0,0,1.55-.12,1.46,1.46,0,0,0,1.33-1.22,1.48,1.48,0,0,0-.78-1.86,12.23,12.23,0,0,1-3.81-3.63l-22.46-30.88c-.1-.14-.21-.27-.3-.42a1.93,1.93,0,0,1,.14-2.74l.16-.13c.61-.61,1.23-1.21,1.83-1.83,2.44-2.5,4.81-5.07,7.34-7.48a21.71,21.71,0,0,1,12-6.17,3.54,3.54,0,0,0,1-.32,1.6,1.6,0,0,0,1-1.67,1.48,1.48,0,0,0-1.26-1.44,8.4,8.4,0,0,0-1.66-.14H327.74c-1.1,0-1.54.39-1.69,1.37a1.52,1.52,0,0,0,.95,1.93,1.14,1.14,0,0,0,.32.07c.66.2,1.35.31,2,.52a16.46,16.46,0,0,1,2.55.91,2.29,2.29,0,0,1,1.09,3.62,14.91,14.91,0,0,1-1.54,2.08c-4.61,5.63-10.1,10.39-15.29,15.44a1.57,1.57,0,0,1-1.13.41c-.52-.09-.63-.65-.66-1.14,0-.9-.14-1.81-.14-2.71Q314.23,165.38,314.24,154Zm-38.71,34h0V173.24a32.27,32.27,0,0,0-.45-5c-1.14-6.48-4.83-10.88-11.1-12.91a44.77,44.77,0,0,0-18.23-2.21,32.72,32.72,0,0,0-13.64,4.47,13.09,13.09,0,0,0-6.62,9.53c-.89,5.39,1.3,9,6.58,10.45a8.22,8.22,0,0,0,7.14-1.22,7.3,7.3,0,0,0,2.24-9.72c-.32-.56-.74-1.06-1.09-1.6a13.11,13.11,0,0,1-1.07-1.76,2.94,2.94,0,0,1,.92-3.91,8.65,8.65,0,0,1,3.7-1.77,15.28,15.28,0,0,1,9.36,1,6.53,6.53,0,0,1,3.89,4.56,16.73,16.73,0,0,1,.52,3.44c.13,2.67.17,5.35.22,8a8.31,8.31,0,0,1-.19,1.79,2.79,2.79,0,0,1-1.71,2.13,15.89,15.89,0,0,1-2.32.8A88.34,88.34,0,0,0,235.36,186a29.74,29.74,0,0,0-7.8,5,15,15,0,0,0-4.43,14.3c1,5.06,4.26,8.16,9.05,9.7a21,21,0,0,0,13.46-.38,34.22,34.22,0,0,0,9-5c.54-.42,1.11-.82,1.69-1.19.77-.45,1.14-.35,1.59.41a10.5,10.5,0,0,1,.75,1.5,8.26,8.26,0,0,0,4.46,4.46,12.08,12.08,0,0,0,5.92,1.09,19,19,0,0,0,11.83-5.22A7.78,7.78,0,0,0,282,209.4a1.65,1.65,0,0,0,0-2,1.52,1.52,0,0,0-1.69-.64c-.68.12-1.36.21-2,.27-1.64.16-2.43-.45-2.63-2.1a22.34,22.34,0,0,1-.1-2.59C275.52,197.62,275.53,192.79,275.53,188ZM197,182.44h14.49a1.61,1.61,0,0,0,1.68-1.54,1.7,1.7,0,0,0,0-.22,23.43,23.43,0,0,0-.45-3.32c-.27-1.48-.66-2.93-.9-4.42a24,24,0,0,0-3.49-9.38,23.69,23.69,0,0,0-25.44-10c-9.86,2.27-16.31,8.5-19.43,18a43.53,43.53,0,0,0-.91,22.87,24.45,24.45,0,0,0,2.89,8.25c4.93,7.83,11.84,12.51,21.21,13.15a25.47,25.47,0,0,0,18-5.51,35.82,35.82,0,0,0,8-9.09,1.93,1.93,0,0,0,.39-.8,1.76,1.76,0,0,0-.19-1.08,2,2,0,0,0-2.73-.73,2,2,0,0,0-.48.38l-3.18,3A14.7,14.7,0,0,1,194,206.23a11.78,11.78,0,0,1-9.91-6.93,37.26,37.26,0,0,1-3-8.79c-.37-1.81-.61-3.65-.8-5.5-.17-1.69.37-2.29,2-2.44,1.12-.09,2.24-.12,3.36-.13Zm169.43,22.8h0v8.67c0,.73.05,1.41.82,1.74a2.12,2.12,0,0,0,2.42-.26,3,3,0,0,0,.67-.79c1.12-1.89,2.82-2.26,4.8-1.83.72.16,1.41.41,2.11.63a51.73,51.73,0,0,0,10.54,2.53c6.94.64,13-1.17,17.71-6.54a19.21,19.21,0,0,0,4.73-16.46,16.82,16.82,0,0,0-8-11.56,49.73,49.73,0,0,0-5.08-2.84c-3.4-1.76-6.84-3.46-10.26-5.21a15.47,15.47,0,0,1-5-3.83A7.67,7.67,0,0,1,380,164.8a7.44,7.44,0,0,1,6.49-7.24,14.07,14.07,0,0,1,12.3,4.43,22,22,0,0,1,3.44,5.15c.55,1.07,1.06,2.17,1.59,3.25a2.22,2.22,0,0,0,1.45,1.37c1.4.34,2.28-.36,2.29-2,0-4.88,0-9.75-.07-14.62,0-.84-.09-1.71-1-2.08s-1.45.29-2,.85a4.77,4.77,0,0,1-4.21,1.53,13.9,13.9,0,0,1-1.91-.34c-1.51-.35-3-.77-4.51-1.1a55.22,55.22,0,0,0-5.7-1.13,21,21,0,0,0-11.42,2.18c-6.75,3.2-10.91,11.28-9.82,18.69a17.44,17.44,0,0,0,6.28,11.1,39.32,39.32,0,0,0,7.95,5c3.93,2,7.88,3.91,11.79,5.91a10.41,10.41,0,0,1,2.31,1.64c2.43,2.33,2.84,5.22,2.06,8.35-.73,2.91-2.82,4.4-5.62,5.09a17,17,0,0,1-18.41-8.2,55.81,55.81,0,0,1-2.37-5.71,9.8,9.8,0,0,0-.57-1.44,2.21,2.21,0,0,0-2.59-1c-.9.22-1.27.73-1.28,2,0,2.93,0,5.82,0,8.71ZM228.49,127.1v9.32a3.94,3.94,0,0,1-2.05,3.77,2.16,2.16,0,0,0-.43.29.86.86,0,0,0,.37,1.57,4.51,4.51,0,0,0,1.16.09H240a5.6,5.6,0,0,0,1-.06.87.87,0,0,0,.81-.93.9.9,0,0,0-.32-.61,3.72,3.72,0,0,0-.75-.49,3.26,3.26,0,0,1-1.69-2.47,12.37,12.37,0,0,1-.18-1.93V119.86a25.28,25.28,0,0,0-.8-6.53,7.84,7.84,0,0,0-5.57-5.78c-4.48-1.37-8.31-.12-11.67,3-.2.18-.34.4-.53.57a1,1,0,0,1-1.41,0,1,1,0,0,1-.31-.61,3.3,3.3,0,0,1-.07-.77V94.13c0-1.88-.46-2.31-2.28-2.31h-7.51c-1,0-1.9,0-2.85.06-.32,0-.83.34-.86.58a1.92,1.92,0,0,0,.4,1.13c.09.15.37.2.57.29a3.8,3.8,0,0,1,2.32,3.32c.09,1,.17,2,.17,3v35.36c-.1,2.15-.83,4-2.87,5-.12.06-.27.11-.32.21s-.35.55-.3.77.38.41.62.53a1.38,1.38,0,0,0,.64,0c3.71,0,7.42.05,11.13.06,1.17,0,2.33,0,3.49-.08.42,0,.87-.11.87-.57a2,2,0,0,0-.49-.95c-.11-.16-.36-.22-.54-.34a4,4,0,0,1-1.85-2.7,14.09,14.09,0,0,1-.24-2.43c0-5.39,0-10.79,0-16.18a6.39,6.39,0,0,1,4.35-6.38c2.25-.91,4.22-.12,5,2.17a13.64,13.64,0,0,1,.6,3.8C228.55,121.32,228.49,124.21,228.49,127.1Zm-62.64,14.44a4.83,4.83,0,0,0,1,.54,5.09,5.09,0,0,0,1.29.08h21.1a2.81,2.81,0,0,0,1-.12c.24-.09.58-.34.6-.54a1.31,1.31,0,0,0-.38-.85,3.3,3.3,0,0,0-.94-.42l-2.64-1a3.38,3.38,0,0,1-2.33-3.38c0-2.63-.11-5.26-.11-7.89V96.51c.13-1.61.69-2.12,2.3-2.12a11,11,0,0,1,10.06,6.89c.51,1.28.86,2.62,1.28,3.93.1.29.17.58.29.86.19.44.55.76,1,.62a1.68,1.68,0,0,0,.92-.78,3.4,3.4,0,0,0,.12-1.27V94.93c0-2.59-.45-3.12-3-3.12H160.78a15.72,15.72,0,0,0-1.68.06c-2.27.26-2.89.94-3,3.23v7c0,1.16,0,2.33.05,3.49a1.24,1.24,0,0,0,1.8,1.2c.6-.25.7-.79.82-1.37a26.86,26.86,0,0,1,1.07-4.24A11.9,11.9,0,0,1,171,94.27a1.24,1.24,0,0,1,1.28,1,12.52,12.52,0,0,1,.21,1.93v36.89c0,.73-.11,1.45-.16,2.18a3.17,3.17,0,0,1-2.2,2.92c-1,.37-1.94.71-2.92,1A1.61,1.61,0,0,0,165.85,141.54Zm99.41-17.67h7.37c1.29,0,1.69-.48,1.68-1.76a17.16,17.16,0,0,0-1.93-8.22c-5.1-9.3-17.94-8.88-23.34-.62a21.37,21.37,0,0,0-3.45,11.37,23.4,23.4,0,0,0,2.85,11.67,13.07,13.07,0,0,0,2.72,3.42,14.41,14.41,0,0,0,19.62-.29c1.1-1,2.08-2.19,3.1-3.3a3.29,3.29,0,0,0,.55-.87,1.34,1.34,0,0,0-.43-1.63c-.45-.34-.89-.28-1.49.26a8.38,8.38,0,0,1-.73.73,22.31,22.31,0,0,1-3.14,2.23,7.55,7.55,0,0,1-10.24-3.07c-.07-.13-.14-.26-.2-.4a22.56,22.56,0,0,1-2.11-7.55c-.16-1.29.24-1.71,1.54-1.87q.45,0,.9,0Z"/><path class="cls-2" d="M484.83.33c-.68,0-1.37-.12-2.06-.12H.54V2.05C.54,26.82.75,51.6.49,76.37S.4,126.07.33,150.92s0,49.72,0,74.58a7.09,7.09,0,0,1-.3,1.44V.07H483.67C484.05.08,484.55-.22,484.83.33Z"/><path class="cls-2" d="M0,475.83c.65,0,1.29.06,1.94.06H484.57V93.09a10.8,10.8,0,0,1,.22-1.6v384.6H1.17C.79,476.08.29,476.38,0,475.83Z"/><path class="cls-2" d="M104.74,126.77H118.2c3.71,0,7.42,0,11.12.23a34.38,34.38,0,0,1,16.11,5.1,16.9,16.9,0,0,1,7.79,11.44A28.11,28.11,0,0,1,153,157a20.57,20.57,0,0,1-8,11.18,31.57,31.57,0,0,1-15.4,5.92,144.78,144.78,0,0,1-16.91,1,6.4,6.4,0,0,0-1.16.07,1.65,1.65,0,0,0-1.49,1.54,7.49,7.49,0,0,0,0,1.16c0,7.34,0,14.67.11,22a34.8,34.8,0,0,0,.45,5,5.61,5.61,0,0,0,3.34,4.33,13.34,13.34,0,0,0,5.2,1.44,6.48,6.48,0,0,1,.77.08,1.52,1.52,0,0,1,1.37,1.66,1.43,1.43,0,0,1,0,.22c-.09,1.15-.59,1.69-1.69,1.69H79.79c-1.24,0-1.72-.46-1.83-1.55s.34-1.7,1.55-2c1.42-.34,2.84-.71,4.26-1a5.37,5.37,0,0,0,4.3-4.47,37.8,37.8,0,0,0,.79-7.58V149.41c0-2.42.08-4.84,0-7.25a56,56,0,0,0-.58-5.92,5.5,5.5,0,0,0-4.2-4.74c-1.53-.44-3.07-.86-4.61-1.26A1.62,1.62,0,0,1,78.14,129c-.36-1.39.09-2.09,1.51-2.16s2.76,0,4.15,0h21ZM110,152h0v5.56c0,3.62,0,7.24.06,10.87,0,1.76.48,2.24,2.18,2.06,3.25-.34,6.52-.68,9.72-1.31a9.92,9.92,0,0,0,7.29-5.84,23.14,23.14,0,0,0,1.54-4.37,38,38,0,0,0,.7-11.84,27.26,27.26,0,0,0-2.6-9.94,9.53,9.53,0,0,0-6.47-5.32,21.53,21.53,0,0,0-5.77-.55,27.23,27.23,0,0,0-3.72.35,3.08,3.08,0,0,0-2.7,2.75,18.92,18.92,0,0,0-.21,3C110,142.21,110,147.09,110,152Z"/><path class="cls-2" d="M314.24,154v22.66c0,.9.09,1.81.14,2.71,0,.49.14,1,.66,1.14a1.57,1.57,0,0,0,1.13-.41c5.19-5,10.68-9.81,15.29-15.44a14.91,14.91,0,0,0,1.54-2.08c.92-1.57.56-2.8-1.09-3.62a16.46,16.46,0,0,0-2.55-.91c-.65-.21-1.34-.32-2-.52a1.52,1.52,0,0,1-1.34-1.68,1.23,1.23,0,0,1,.07-.32c.15-1,.59-1.36,1.69-1.37h23.09a8.4,8.4,0,0,1,1.66.14,1.48,1.48,0,0,1,1.26,1.44,1.6,1.6,0,0,1-1,1.67,3.54,3.54,0,0,1-1,.32,21.71,21.71,0,0,0-12,6.17c-2.53,2.41-4.9,5-7.34,7.48-.6.62-1.22,1.22-1.83,1.83a1.94,1.94,0,0,0-.43,2.71,1,1,0,0,0,.13.16c.09.15.2.28.3.42l22.46,30.88a12.23,12.23,0,0,0,3.81,3.63,1.48,1.48,0,0,1,.78,1.86,1.46,1.46,0,0,1-1.33,1.22,8,8,0,0,1-1.55.12H329c-1.22-.12-1.67-.64-1.62-1.86a1.28,1.28,0,0,1,1.08-1.45h.08c.55-.13,1.12-.17,1.65-.34,1.68-.53,2.72-1.75,1.66-3.65-.57-1-1.11-2.06-1.77-3-3.37-4.85-6.78-9.68-10.17-14.52-.47-.67-.89-1.38-1.34-2.06a1.61,1.61,0,0,0-2.14-.77l-.19.1a3.14,3.14,0,0,0-1.86,2.47,15.09,15.09,0,0,0-.17,2.32q0,6.48.08,12.95a13.25,13.25,0,0,0,.1,1.67,4.88,4.88,0,0,0,3.56,4.33c.53.17,1.08.29,1.6.48a1.7,1.7,0,0,1,1.24,1.88,1.5,1.5,0,0,1-1.54,1.46h-.13c-1.38.07-2.76.07-4.14.07h-23.3a1.42,1.42,0,0,1-1.59-1.06,1.9,1.9,0,0,1,.48-2.14,4.49,4.49,0,0,1,1.23-.68c2.84-1,4-3.06,4.17-5.9.07-1.43.07-2.85.07-4.28v-62a22.61,22.61,0,0,0-.29-3.85,4.65,4.65,0,0,0-3.35-3.76c-.29-.1-.58-.17-.87-.26A2,2,0,0,1,290,128a2,2,0,0,1,.15-.45,1.6,1.6,0,0,1,.8-.74,2.41,2.41,0,0,1,1-.09h19.93c1.86,0,2.44.63,2.44,2.67,0,1.34-.07,2.67-.07,4Q314.23,143.7,314.24,154Z"/><path class="cls-2" d="M275.53,188v14.49a22.34,22.34,0,0,0,.1,2.59c.2,1.65,1,2.26,2.63,2.1.69-.06,1.37-.15,2.05-.27a1.52,1.52,0,0,1,1.69.64,1.65,1.65,0,0,1,0,2,7.78,7.78,0,0,1-1.09,1.27A18.93,18.93,0,0,1,269.09,216a12.08,12.08,0,0,1-5.92-1.09,8.26,8.26,0,0,1-4.46-4.46A10.5,10.5,0,0,0,258,209c-.45-.76-.82-.86-1.59-.41-.58.37-1.15.77-1.69,1.19a34.22,34.22,0,0,1-9,5,21,21,0,0,1-13.46.38c-4.79-1.54-8.09-4.64-9.05-9.7a15,15,0,0,1,4.43-14.3,29.74,29.74,0,0,1,7.8-5,88.85,88.85,0,0,1,18.28-6.71,15.89,15.89,0,0,0,2.32-.8,2.79,2.79,0,0,0,1.71-2.13,8.31,8.31,0,0,0,.19-1.79c0-2.67-.09-5.35-.22-8a16.73,16.73,0,0,0-.52-3.44,6.53,6.53,0,0,0-3.89-4.56,15.28,15.28,0,0,0-9.36-1,8.65,8.65,0,0,0-3.7,1.77,2.94,2.94,0,0,0-.92,3.91,13.11,13.11,0,0,0,1.07,1.76c.35.54.77,1,1.09,1.6a7.3,7.3,0,0,1-2.24,9.72,8.22,8.22,0,0,1-7.14,1.22c-5.28-1.45-7.47-5.06-6.58-10.45a13.09,13.09,0,0,1,6.62-9.53,32.72,32.72,0,0,1,13.64-4.47A44.77,44.77,0,0,1,264,155.42c6.27,2,10,6.43,11.1,12.91a32.27,32.27,0,0,1,.45,5c.06,4.92,0,9.84,0,14.76Zm-18,2.93h.11v-3.75c0-.9-.06-1.8-.16-2.7-.16-1.26-.71-1.6-2-1.34a4.34,4.34,0,0,0-.62.16,29.14,29.14,0,0,0-6.39,3.07,14.63,14.63,0,0,0-5.88,7.32,13.1,13.1,0,0,0-.11,8.5,6.16,6.16,0,0,0,6.8,4.52,11.65,11.65,0,0,0,6.17-3,6.64,6.64,0,0,0,2.21-6.17,23.09,23.09,0,0,1-.14-3c0-1.24,0-2.44,0-3.65Z"/><path class="cls-2" d="M197,182.44H185.74a29,29,0,0,0-3.36.13c-1.68.15-2.22.75-2,2.44.19,1.85.43,3.69.8,5.5a37.26,37.26,0,0,0,3,8.79,11.78,11.78,0,0,0,9.91,6.93,14.69,14.69,0,0,0,12.43-4.16l3.18-3a2,2,0,0,1,2.83-.13,2,2,0,0,1,.38.48,1.76,1.76,0,0,1,.19,1.08,1.93,1.93,0,0,1-.39.8,35.82,35.82,0,0,1-8,9.09,25.47,25.47,0,0,1-18,5.51c-9.37-.64-16.28-5.32-21.21-13.15a24.45,24.45,0,0,1-2.89-8.25,43.53,43.53,0,0,1,.91-22.87c3.12-9.53,9.57-15.76,19.43-18a23.69,23.69,0,0,1,25.44,10,24,24,0,0,1,3.49,9.38c.24,1.49.63,2.94.9,4.42a23.43,23.43,0,0,1,.45,3.32,1.57,1.57,0,0,1-1.67,1.76c-.68.06-1.38,0-2.07,0H197Zm-8.77-5.15H195c1.37,0,1.93-.59,2.07-2q0-.39,0-.78c-.17-2.54-.26-5.09-.53-7.61a20.13,20.13,0,0,0-1.56-6c-2.12-4.93-9.32-4.78-11.75-1.14a14.8,14.8,0,0,0-1.64,3.34,42.38,42.38,0,0,0-1.79,12.25c-.06,1.37.48,1.88,1.85,1.89,2.22.07,4.39,0,6.63,0Z"/><path class="cls-2" d="M366.44,205.24v-8.67c0-1.23.38-1.74,1.28-2a2.21,2.21,0,0,1,2.59,1,9.8,9.8,0,0,1,.57,1.44,55.81,55.81,0,0,0,2.37,5.71,17,17,0,0,0,18.41,8.2c2.8-.69,4.89-2.18,5.62-5.09.78-3.13.37-6-2.06-8.35a10.41,10.41,0,0,0-2.31-1.64c-3.91-2-7.86-3.93-11.79-5.91a39.32,39.32,0,0,1-7.95-5.05,17.44,17.44,0,0,1-6.28-11.1c-1.09-7.41,3.07-15.49,9.82-18.69a21,21,0,0,1,11.42-2.18,55.22,55.22,0,0,1,5.7,1.13c1.51.33,3,.75,4.51,1.1a13.9,13.9,0,0,0,1.91.34,4.77,4.77,0,0,0,4.21-1.53c.55-.56,1.11-1.2,2-.85s1,1.24,1,2.08c0,4.87.08,9.74.07,14.62,0,1.6-.89,2.3-2.29,2a2.22,2.22,0,0,1-1.45-1.37c-.53-1.08-1-2.18-1.59-3.25a22,22,0,0,0-3.44-5.15,14.07,14.07,0,0,0-12.3-4.43,7.45,7.45,0,0,0-6.46,7.2,7.7,7.7,0,0,0,1.94,4.69,15.47,15.47,0,0,0,5,3.83c3.42,1.75,6.86,3.45,10.26,5.21,1.72.89,3.45,1.79,5.08,2.84a16.82,16.82,0,0,1,8,11.56,19.21,19.21,0,0,1-4.73,16.46c-4.67,5.37-10.77,7.18-17.71,6.54a51.73,51.73,0,0,1-10.54-2.53c-.7-.22-1.39-.47-2.11-.63-2-.43-3.68-.06-4.8,1.83a3,3,0,0,1-.67.79,2.12,2.12,0,0,1-2.42.26c-.77-.33-.82-1-.82-1.74v-8.67Z"/><path class="cls-2" d="M228.49,127.1c0-2.89.06-5.78,0-8.67a13.64,13.64,0,0,0-.6-3.8c-.76-2.29-2.73-3.08-5-2.17a6.39,6.39,0,0,0-4.35,6.38c0,5.39,0,10.79.05,16.18a14.09,14.09,0,0,0,.24,2.43,4,4,0,0,0,1.85,2.7c.18.12.43.18.54.34a2,2,0,0,1,.49.95c0,.46-.45.56-.87.57-1.16,0-2.32.08-3.49.08-3.71,0-7.42,0-11.13-.06a1.38,1.38,0,0,1-.64,0c-.24-.12-.56-.31-.62-.53s.16-.53.3-.77.2-.15.32-.21a5.42,5.42,0,0,0,2.87-5V100.16c0-1-.08-2-.17-3A3.78,3.78,0,0,0,206,93.84c-.2-.09-.48-.14-.57-.29a1.92,1.92,0,0,1-.4-1.13c0-.24.54-.55.86-.58,1-.09,1.9-.06,2.85-.06h7.51c1.82,0,2.27.43,2.28,2.31v15.66a3.3,3.3,0,0,0,.07.77,1,1,0,0,0,1.72.56c.19-.17.33-.39.53-.57,3.36-3.07,7.19-4.32,11.67-3a7.84,7.84,0,0,1,5.57,5.78,25.28,25.28,0,0,1,.8,6.53v15.79a12.37,12.37,0,0,0,.18,1.93,3.26,3.26,0,0,0,1.69,2.47,3.72,3.72,0,0,1,.75.49.88.88,0,0,1,.12,1.23.85.85,0,0,1-.61.31,5.6,5.6,0,0,1-1,.06h-12.5a4.51,4.51,0,0,1-1.16-.09.86.86,0,0,1-.37-1.57,2.16,2.16,0,0,1,.43-.29,3.94,3.94,0,0,0,2.05-3.77v-7.76Z"/><path class="cls-2" d="M165.85,141.54a1.63,1.63,0,0,1,1.31-1.28c1-.31,2-.65,2.92-1a3.17,3.17,0,0,0,2.2-2.92c.05-.73.16-1.45.16-2.18V97.27a12.52,12.52,0,0,0-.21-1.93,1.24,1.24,0,0,0-1.28-1,11.9,11.9,0,0,0-11.11,6.86,26.86,26.86,0,0,0-1.07,4.24c-.12.58-.22,1.12-.82,1.37a1.26,1.26,0,0,1-1.8-1.2c-.06-1.16-.06-2.33-.05-3.49V95.39a1.13,1.13,0,0,1,0-.26c.1-2.29.72-3,3-3.23a15.72,15.72,0,0,1,1.68-.06h36.63c2.59,0,3.07.53,3,3.12v9.71a3.4,3.4,0,0,1-.12,1.27,1.68,1.68,0,0,1-.92.78c-.45.14-.81-.18-1-.62-.12-.28-.19-.57-.29-.86-.42-1.31-.77-2.65-1.28-3.93a11,11,0,0,0-10.06-6.89c-1.61,0-2.17.51-2.3,2.12V128c0,2.63.08,5.26.11,7.89a3.38,3.38,0,0,0,2.33,3.38l2.64,1a3.3,3.3,0,0,1,.94.42,1.31,1.31,0,0,1,.38.85c0,.2-.36.45-.6.54a2.81,2.81,0,0,1-1,.12h-21.1a5.09,5.09,0,0,1-1.29-.08A5,5,0,0,1,165.85,141.54Z"/><path class="cls-2" d="M265.26,123.87h-6.73q-.45,0-.9,0c-1.3.16-1.7.58-1.54,1.87a22.56,22.56,0,0,0,2.11,7.55,7.56,7.56,0,0,0,10,3.67l.4-.2a22.31,22.31,0,0,0,3.14-2.23,8.38,8.38,0,0,0,.73-.73c.6-.54,1-.6,1.49-.26a1.34,1.34,0,0,1,.43,1.63,3.29,3.29,0,0,1-.55.87c-1,1.11-2,2.27-3.1,3.3a14.41,14.41,0,0,1-19.62.29,13.07,13.07,0,0,1-2.72-3.42,23.4,23.4,0,0,1-2.85-11.67A21.46,21.46,0,0,1,249,113.2c5.4-8.26,18.24-8.68,23.34.62a17.16,17.16,0,0,1,1.93,8.22c0,1.28-.39,1.72-1.68,1.76-1.81.06-3.62,0-5.43,0h-1.94ZM261.05,121h2.84a1.39,1.39,0,0,0,1.55-1.4,42.31,42.31,0,0,0-.07-5.16,11.47,11.47,0,0,0-.91-2.8,3.48,3.48,0,0,0-.57-.86,3.69,3.69,0,0,0-5.16-.77,3.73,3.73,0,0,0-1.1,1.3,14.65,14.65,0,0,0-1.78,6.94c0,1.85.62,2.57,2.49,2.72C259.24,121.06,260.15,121,261.05,121Z"/><path class="cls-1" d="M110,152V137.38a18.92,18.92,0,0,1,.21-3,3.08,3.08,0,0,1,2.7-2.75,27.23,27.23,0,0,1,3.72-.35,21.53,21.53,0,0,1,5.77.55,9.53,9.53,0,0,1,6.47,5.32,27.26,27.26,0,0,1,2.6,9.94,38,38,0,0,1-.7,11.84,23.14,23.14,0,0,1-1.54,4.37,9.92,9.92,0,0,1-7.29,5.84c-3.2.63-6.47,1-9.72,1.31-1.7.18-2.15-.3-2.18-2.06-.05-3.63-.05-7.25-.06-10.87V152Z"/><path class="cls-1" d="M257.51,190.89v3.62a23.09,23.09,0,0,0,.14,3,6.64,6.64,0,0,1-2.21,6.17,11.65,11.65,0,0,1-6.17,3,6.16,6.16,0,0,1-6.8-4.52,13.1,13.1,0,0,1,.11-8.5,14.63,14.63,0,0,1,5.88-7.32,29.14,29.14,0,0,1,6.39-3.07,4.34,4.34,0,0,1,.62-.16c1.26-.26,1.81.08,2,1.34.1.9.15,1.8.16,2.7v3.75Z"/><path class="cls-1" d="M188.24,177.29h-6.61c-1.37,0-1.91-.52-1.85-1.89a42.38,42.38,0,0,1,1.79-12.25,14.39,14.39,0,0,1,1.64-3.34c2.43-3.64,9.63-3.79,11.75,1.14a20.13,20.13,0,0,1,1.56,6c.27,2.52.36,5.07.53,7.61q0,.39,0,.78c-.14,1.37-.7,1.94-2.07,2C192.72,177.31,190.48,177.29,188.24,177.29Z"/><path class="cls-1" d="M261.05,121c-.9,0-1.81.06-2.71,0-1.87-.15-2.54-.87-2.49-2.72a14.65,14.65,0,0,1,1.78-6.94,3.69,3.69,0,0,1,5-1.63,3.73,3.73,0,0,1,1.3,1.1,3.48,3.48,0,0,1,.57.86,11.47,11.47,0,0,1,.91,2.8,42.31,42.31,0,0,1,.07,5.16c0,.87-.59,1.35-1.55,1.4s-1.89,0-2.84,0Z"/></g></g></g></g></svg>