<svg xmlns="http://www.w3.org/2000/svg" viewBox="0 0 149.66 77.55"><defs><style>.cls-1{fill:#09357b;}.cls-2{fill:#fafbfa;}</style></defs><title>the-peaks-logo</title><g id="Layer_2" data-name="Layer 2"><g id="Layer_1-2" data-name="Layer 1"><rect class="cls-1" width="149.66" height="77.55"/><path class="cls-2" d="M17.57,27.64H23.1c1.52,0,3,0,4.56.09a14.21,14.21,0,0,1,6.61,2.09,7,7,0,0,1,3.2,4.7A11.71,11.71,0,0,1,37.38,40a8.48,8.48,0,0,1-3.29,4.59,13,13,0,0,1-6.32,2.43,59.52,59.52,0,0,1-6.93.41,1.94,1.94,0,0,0-.48,0,.68.68,0,0,0-.61.63,3.84,3.84,0,0,0,0,.48c0,3,0,6,0,9A15.77,15.77,0,0,0,20,59.69a2.31,2.31,0,0,0,1.37,1.77,5.47,5.47,0,0,0,2.13.59l.32,0a.62.62,0,0,1,.56.68.29.29,0,0,1,0,.09c0,.47-.24.69-.69.69H7.33c-.5,0-.7-.19-.75-.64s.14-.69.64-.82S8.39,61.8,9,61.68a2.19,2.19,0,0,0,1.76-1.83,16.26,16.26,0,0,0,.33-3.11V36.93c0-1,0-2,0-3q-.06-1.22-.24-2.43A2.27,2.27,0,0,0,9.1,29.58c-.63-.18-1.26-.36-1.9-.52a.66.66,0,0,1-.54-.51c-.15-.57,0-.86.62-.88s1.13,0,1.7,0H17.6ZM19.73,38h0v2.28c0,1.49,0,3,0,4.46,0,.72.19.92.89.85,1.33-.14,2.68-.28,4-.54a4.07,4.07,0,0,0,3-2.4,9.27,9.27,0,0,0,.63-1.79A15.54,15.54,0,0,0,28.55,36a11,11,0,0,0-1.07-4.08,3.91,3.91,0,0,0-2.65-2.18,9,9,0,0,0-2.37-.23,11.32,11.32,0,0,0-1.53.15,1.25,1.25,0,0,0-1.1,1.13A8.38,8.38,0,0,0,19.74,32C19.73,34,19.73,36,19.73,38Z"/><path class="cls-2" d="M103.54,38.81v9.3c0,.37,0,.74.06,1.11,0,.2.06.43.27.47a.6.6,0,0,0,.46-.17,75,75,0,0,0,6.28-6.33,7.59,7.59,0,0,0,.63-.86.93.93,0,0,0-.45-1.48,6.85,6.85,0,0,0-1-.38c-.27-.08-.55-.13-.82-.21a.63.63,0,0,1-.56-.69l0-.13c.07-.41.25-.56.7-.56h9.47a3.07,3.07,0,0,1,.68,0,.61.61,0,0,1,.52.59.66.66,0,0,1-.41.69,1.51,1.51,0,0,1-.41.13A8.93,8.93,0,0,0,114,42.87c-1,1-2,2.05-3,3.07-.24.26-.5.5-.75.75a.81.81,0,0,0-.17,1.12l0,.06.12.17,9.22,12.68A5,5,0,0,0,121,62.2a.62.62,0,0,1,.32.77.6.6,0,0,1-.54.5,4.6,4.6,0,0,1-.64.05H109.61c-.5-.05-.68-.26-.66-.77a.51.51,0,0,1,.44-.59h0c.23-.06.46-.07.68-.14.69-.22,1.12-.72.68-1.5a13.73,13.73,0,0,0-.73-1.23c-1.38-2-2.78-4-4.17-6-.19-.28-.36-.57-.55-.85a.65.65,0,0,0-.88-.31l-.08,0a1.29,1.29,0,0,0-.76,1,6.16,6.16,0,0,0-.07,1c0,1.78,0,3.55,0,5.32a5.06,5.06,0,0,0,.05.68A2,2,0,0,0,105.08,62c.21.07.44.12.65.2a.69.69,0,0,1,.51.77.61.61,0,0,1-.63.6h0c-.57,0-1.14,0-1.7,0H94.3a.6.6,0,0,1-.66-.43.78.78,0,0,1,.2-.88,1.8,1.8,0,0,1,.51-.28,2.46,2.46,0,0,0,1.71-2.42c0-.59,0-1.17,0-1.76V32.33A10.41,10.41,0,0,0,96,30.75a1.92,1.92,0,0,0-1.38-1.54l-.36-.11a.82.82,0,0,1-.64-1,.6.6,0,0,1,.06-.19.65.65,0,0,1,.33-.3,1.12,1.12,0,0,1,.41,0h8.17c.77,0,1,.26,1,1.1,0,.55,0,1.09,0,1.64Z"/><path class="cls-2" d="M87.66,52.76v6a7.52,7.52,0,0,0,0,1.06.84.84,0,0,0,1.08.86,8,8,0,0,0,.84-.11.62.62,0,0,1,.69.27.66.66,0,0,1,0,.82,3.17,3.17,0,0,1-.45.52A7.77,7.77,0,0,1,85,64.25a5,5,0,0,1-2.43-.44A3.48,3.48,0,0,1,80.75,62a3.54,3.54,0,0,0-.3-.62c-.19-.31-.34-.35-.66-.17a6.63,6.63,0,0,0-.69.49,13.92,13.92,0,0,1-3.69,2,8.66,8.66,0,0,1-5.53.16,5,5,0,0,1-3.71-4A6.16,6.16,0,0,1,68,54a12,12,0,0,1,3.2-2,35.91,35.91,0,0,1,7.5-2.76,6.24,6.24,0,0,0,1-.32,1.13,1.13,0,0,0,.7-.88,3,3,0,0,0,.08-.73c0-1.1,0-2.2-.09-3.29a6.77,6.77,0,0,0-.21-1.41,2.69,2.69,0,0,0-1.6-1.87,6.25,6.25,0,0,0-3.84-.41,3.58,3.58,0,0,0-1.52.73,1.19,1.19,0,0,0-.37,1.6,5.27,5.27,0,0,0,.43.72,7.66,7.66,0,0,1,.45.66,3,3,0,0,1-.92,4,3.67,3.67,0,0,1-5.63-3.79,5.38,5.38,0,0,1,2.72-3.91,13.28,13.28,0,0,1,5.6-1.83,18.44,18.44,0,0,1,7.48.9,6.32,6.32,0,0,1,4.55,5.3,12.92,12.92,0,0,1,.19,2.05c0,2,0,4,0,6.06ZM80.27,54h0V52.43c0-.37,0-.74-.07-1.11-.07-.52-.29-.66-.82-.55a2.44,2.44,0,0,0-.26.06,12.64,12.64,0,0,0-2.62,1.26,6,6,0,0,0-2.41,3,5.42,5.42,0,0,0,0,3.49,2.54,2.54,0,0,0,2.8,1.85,4.86,4.86,0,0,0,2.53-1.23,2.73,2.73,0,0,0,.9-2.53,10.12,10.12,0,0,1,0-1.23c0-.51,0-1,0-1.5Z"/><path class="cls-2" d="M55.43,50.48H50.81a12.73,12.73,0,0,0-1.38.05c-.69.07-.91.31-.82,1s.18,1.51.33,2.25a15.39,15.39,0,0,0,1.23,3.61,4.85,4.85,0,0,0,4.07,2.84,6,6,0,0,0,5.1-1.7l1.3-1.23a.82.82,0,0,1,1.16-.06.72.72,0,0,1,.24.64.84.84,0,0,1-.16.33A15,15,0,0,1,58.6,62a10.45,10.45,0,0,1-7.39,2.26,10.71,10.71,0,0,1-8.7-5.39,10,10,0,0,1-1.19-3.39,17.78,17.78,0,0,1,.37-9.38,10.42,10.42,0,0,1,8-7.39,9.72,9.72,0,0,1,10.44,4.1,10,10,0,0,1,1.43,3.85c.1.61.26,1.21.37,1.82a10.11,10.11,0,0,1,.18,1.36.66.66,0,0,1-.59.72h-.09c-.28,0-.57,0-.85,0H55.43Zm-3.6-2.11h2.76c.57,0,.8-.24.85-.82a1.71,1.71,0,0,0,0-.32c-.07-1-.1-2.09-.21-3.13a8.51,8.51,0,0,0-.64-2.46,2.9,2.9,0,0,0-4.83-.47,6.44,6.44,0,0,0-.67,1.37,17.2,17.2,0,0,0-.73,5c0,.56.19.77.76.78.91,0,1.8,0,2.72,0Z"/><path class="cls-2" d="M125,59.84V56.28c0-.51.16-.71.53-.82a.91.91,0,0,1,1.06.41,4.24,4.24,0,0,1,.23.59,21.81,21.81,0,0,0,1,2.34,7,7,0,0,0,7.55,3.37,2.85,2.85,0,0,0,2.31-2.09,3.32,3.32,0,0,0-.85-3.43,4.28,4.28,0,0,0-1-.67c-1.6-.82-3.22-1.61-4.83-2.43a15.71,15.71,0,0,1-3.27-2.07,7.14,7.14,0,0,1-2.57-4.55,7.53,7.53,0,0,1,4-7.67,8.53,8.53,0,0,1,4.68-.9,23.07,23.07,0,0,1,2.34.47c.62.13,1.23.3,1.85.45a6.86,6.86,0,0,0,.79.14,2,2,0,0,0,1.72-.63c.23-.23.46-.49.82-.35s.41.51.41.85c0,2,0,4,0,6,0,.66-.36,1-.94.83a1,1,0,0,1-.59-.57c-.22-.44-.41-.89-.65-1.33a8.88,8.88,0,0,0-1.42-2.11,5.75,5.75,0,0,0-5-1.82,3,3,0,0,0-2.65,3,3.2,3.2,0,0,0,.79,1.93,6.42,6.42,0,0,0,2.05,1.57c1.41.72,2.82,1.41,4.21,2.14A23.64,23.64,0,0,1,139.67,50,6.92,6.92,0,0,1,143,54.79,7.87,7.87,0,0,1,141,61.54a8.08,8.08,0,0,1-7.27,2.68,21.4,21.4,0,0,1-4.32-1,8.7,8.7,0,0,0-.87-.26,1.64,1.64,0,0,0-2,.75,1.18,1.18,0,0,1-.27.32.89.89,0,0,1-1,.11c-.31-.14-.33-.41-.33-.72V59.84Z"/><path class="cls-2" d="M68.35,27.77c0-1.18,0-2.37,0-3.56a5.83,5.83,0,0,0-.24-1.55,1.42,1.42,0,0,0-2-.9,2.63,2.63,0,0,0-1.79,2.62c0,2.21,0,4.43,0,6.64a5.56,5.56,0,0,0,.1,1,1.65,1.65,0,0,0,.76,1.11c.07,0,.18.07.22.14a.81.81,0,0,1,.2.39c0,.19-.18.23-.36.23-.47,0-.95,0-1.43,0-1.52,0-3,0-4.56,0a.62.62,0,0,1-.27,0c-.1,0-.23-.13-.25-.22s.06-.22.12-.31.08-.07.13-.09a2.22,2.22,0,0,0,1.18-2.05V16.72c0-.41,0-.82-.07-1.23a1.56,1.56,0,0,0-.93-1.37c-.09,0-.2,0-.24-.11a.81.81,0,0,1-.16-.47c0-.1.22-.22.35-.24.39,0,.78,0,1.17,0h3.08c.75,0,.93.18.94,1v6.42a.87.87,0,0,0,0,.32.4.4,0,0,0,.45.35A.37.37,0,0,0,65,21.2c.08-.07.14-.16.22-.24A4.74,4.74,0,0,1,70,19.73a3.22,3.22,0,0,1,2.28,2.38,10,10,0,0,1,.33,2.67v6.48a5.42,5.42,0,0,0,.08.8,1.33,1.33,0,0,0,.69,1,1.49,1.49,0,0,1,.31.2.36.36,0,0,1,0,.5.34.34,0,0,1-.25.13l-.41,0H68a2,2,0,0,1-.48,0,.36.36,0,0,1-.31-.39.34.34,0,0,1,.16-.25.66.66,0,0,1,.17-.12,1.61,1.61,0,0,0,.85-1.55V27.77Z"/><path class="cls-2" d="M42.65,33.7a.67.67,0,0,1,.54-.53c.41-.12.82-.26,1.2-.41a1.31,1.31,0,0,0,.9-1.2c0-.3.06-.59.06-.89V15.53a4.23,4.23,0,0,0-.08-.79.51.51,0,0,0-.53-.41,4.89,4.89,0,0,0-4.56,2.81,11.67,11.67,0,0,0-.44,1.74c-.05.24-.09.46-.33.57a.52.52,0,0,1-.69-.24.47.47,0,0,1,0-.26c0-.47,0-.95,0-1.43V14.65c0-.94.29-1.23,1.23-1.32l.69,0h15c1.06,0,1.26.22,1.23,1.28v4a1.32,1.32,0,0,1,0,.52.67.67,0,0,1-.38.32c-.18.06-.33-.07-.41-.26a3.58,3.58,0,0,1-.11-.35c-.18-.54-.32-1.09-.53-1.61a4.53,4.53,0,0,0-4.13-2.83c-.66,0-.89.21-.94.87V28.14c0,1.08,0,2.16,0,3.24a1.38,1.38,0,0,0,1,1.38l1.08.41a1.71,1.71,0,0,1,.39.17.53.53,0,0,1,.15.35c0,.09-.14.19-.24.23a1.12,1.12,0,0,1-.41,0H43.59a2.33,2.33,0,0,1-.53,0A2.06,2.06,0,0,1,42.65,33.7Z"/><path class="cls-2" d="M83.44,26.45H80.31c-.53.06-.7.23-.63.76a9,9,0,0,0,.87,3.1,3.1,3.1,0,0,0,4.12,1.51l.16-.08a9.74,9.74,0,0,0,1.29-.92l.3-.3c.24-.22.41-.24.61-.11a.56.56,0,0,1,.18.67,1.69,1.69,0,0,1-.23.36c-.41.46-.82.93-1.27,1.36a5.91,5.91,0,0,1-8,.11,5.24,5.24,0,0,1-1.12-1.4,9.65,9.65,0,0,1-1.17-4.79,8.74,8.74,0,0,1,1.4-4.65,5.6,5.6,0,0,1,9.58.25,7.07,7.07,0,0,1,.79,3.38c0,.52-.16.7-.69.72-.74,0-1.49,0-2.23,0h-.79Zm-1.73-1.18h1.17a.57.57,0,0,0,.64-.58,18.57,18.57,0,0,0,0-2.11,4.57,4.57,0,0,0-.38-1.15,1,1,0,0,0-.23-.35,1.51,1.51,0,0,0-2.12-.32,1.54,1.54,0,0,0-.45.53,6.19,6.19,0,0,0-.73,2.85c0,.76.26,1.06,1,1.12C81,25.29,81.35,25.27,81.71,25.27Z"/></g></g></svg>